<?xml version="1.0" encoding="UTF-8" standalone="no"?>
<!-- Created with Inkscape (http://www.inkscape.org/) -->

<svg
   xmlns:dc="http://purl.org/dc/elements/1.1/"
   xmlns:cc="http://creativecommons.org/ns#"
   xmlns:rdf="http://www.w3.org/1999/02/22-rdf-syntax-ns#"
   xmlns:svg="http://www.w3.org/2000/svg"
   xmlns="http://www.w3.org/2000/svg"
   xmlns:sodipodi="http://sodipodi.sourceforge.net/DTD/sodipodi-0.dtd"
   xmlns:inkscape="http://www.inkscape.org/namespaces/inkscape"
   width="5.729115in"
   height="5.729115in"
   version="1.1"
   viewBox="0 0 145.51952 145.51952"
   id="svg12"
   sodipodi:docname="M2C_logo_only.svg"
   inkscape:version="0.92.3 (2405546, 2018-03-11)">
  <defs
     id="defs16" />
  <sodipodi:namedview
     pagecolor="#ffffff"
     bordercolor="#666666"
     borderopacity="1"
     objecttolerance="10"
     gridtolerance="10"
     guidetolerance="10"
     inkscape:pageopacity="0"
     inkscape:pageshadow="2"
     inkscape:window-width="745"
     inkscape:window-height="480"
     id="namedview14"
     showgrid="false"
     fit-margin-top="0"
     fit-margin-left="0"
     fit-margin-right="0"
     fit-margin-bottom="0"
     inkscape:zoom="0.17559524"
     inkscape:cx="254.42624"
     inkscape:cy="-30.147309"
     inkscape:window-x="65"
     inkscape:window-y="24"
     inkscape:window-maximized="0"
     inkscape:current-layer="svg12" />
  <metadata
     id="metadata2">
    <rdf:RDF>
      <cc:Work
         rdf:about="">
        <dc:format>image/svg+xml</dc:format>
        <dc:type
           rdf:resource="http://purl.org/dc/dcmitype/StillImage" />
        <dc:title></dc:title>
      </cc:Work>
    </rdf:RDF>
  </metadata>
  <g
     transform="translate(-40.633058,34.296)"
     id="g10">
    <g
       transform="matrix(0.26458,0,0,0.26458,14.174,-47.525)"
       id="g8">
      <rect
         class="cls-4"
         x="106.39"
         y="56.386002"
         width="537.22998"
         height="537.22998"
         stroke-miterlimit="10"
         id="rect4"
         style="fill:none;stroke:#000000;stroke-width:12.77200031px;stroke-miterlimit:10" />
      <path
         d="M 215.82,322.32 V 188.36 l 40.936,0.1274 35.73,94.208 c 19.652,51.814 35.731,94.236 35.732,94.27 0,0.0342 0.22637,0.0623 0.50047,0.0623 0.27428,0 0.4996,-0.0281 0.50065,-0.0623 0,-0.0342 16.081,-42.456 35.733,-94.27 l 35.73,-94.208 40.936,-0.1274 v 267.92 h -32.898 v -97.012 c 0,-53.356 -0.072,-97.269 -0.15618,-97.584 -0.086,-0.31975 -0.31166,-0.53996 -0.51136,-0.49844 -0.30113,0.0626 -18.361,45.607 -65.527,165.25 l -2.137,5.4207 h -23.332 l -2.1369,-5.4207 c -47.166,-119.64 -65.226,-165.19 -65.527,-165.25 -0.1997,-0.0416 -0.42572,0.17869 -0.51136,0.49844 -0.0842,0.31506 -0.15442,44.228 -0.15618,97.584 v 97.012 h -32.898 z M 511.9,449.78 c -10.803,-0.60966 -20.086,-4.4175 -28.498,-11.69 -7.5487,-6.5262 -12.624,-15.097 -15.211,-25.688 -1.1434,-4.6806 -1.5843,-7.7674 -1.9428,-13.604 -0.48521,-7.8967 0.18145,-15.79 1.9428,-23 1.0385,-4.2513 2.3544,-7.877 4.1709,-11.491 6.7412,-13.413 19.913,-23.068 34.678,-25.418 5.1848,-0.82527 12.901,-0.71093 17.944,0.26595 12.926,2.5035 23.446,10.531 29.426,22.455 1.8445,3.678 3.8111,9.437 3.2224,9.437 -0.0684,0 -2.784,0.78506 -6.0336,1.7446 -3.2498,0.95952 -6.0254,1.7443 -6.1679,1.744 -0.14214,0 -0.57909,-0.90628 -0.97007,-2.0132 -1.0018,-2.8364 -3.3333,-7.3307 -5.0546,-9.7433 -3.0204,-4.2335 -7.4534,-7.9006 -11.676,-9.6583 -8.28,-3.447 -19.331,-3.0945 -27.715,0.88396 -6.1214,2.9049 -12.179,8.8688 -15.268,15.031 -3.8118,7.6053 -5.4705,17.357 -4.95,29.102 0.574,12.949 4.2439,22.588 11.278,29.622 5.8601,5.8602 12.668,8.9196 21.297,9.5707 13.583,1.025 23.806,-4.7116 29.937,-16.799 0.79248,-1.5623 1.7606,-3.7463 2.1516,-4.8532 0.39098,-1.1068 0.83197,-2.0127 0.9799,-2.0131 0.1474,0 2.9428,0.78444 6.2109,1.744 3.268,0.95952 5.9787,1.7446 6.0238,1.7446 0.41063,0 -0.95814,4.4056 -2.4002,7.726 -3.2824,7.558 -9.2814,14.543 -16.239,18.907 -5.2833,3.3139 -12.665,5.5912 -19.135,5.903 -1.4535,0.07 -3.1474,0.15846 -3.7643,0.19657 -0.61683,0.0381 -2.5234,-0.0105 -4.2369,-0.10669 z M 471.525,303.54 c 0,-2.8609 0.0228,-2.9838 0.71597,-3.9253 0.39395,-0.53459 11.162,-14.374 23.929,-30.755 12.767,-16.38 23.932,-30.848 24.812,-32.15 4.7344,-7.0128 6.3249,-12.023 6.048,-19.052 -0.16671,-4.2224 -0.56663,-5.9083 -2.2179,-9.3406 -2.1783,-4.5275 -5.8115,-7.5611 -10.669,-8.9088 -1.2793,-0.35491 -2.5368,-0.44876 -5.9813,-0.44641 -4.0752,0.004 -4.4925,0.047 -6.3553,0.67562 -4.9176,1.659 -8.6501,5.0153 -11.156,10.031 -1.1429,2.2874 -1.6102,3.6867 -2.2892,6.8537 -0.53119,2.4774 -0.59296,2.6138 -1.1592,2.5588 -0.32885,-0.0319 -3.3738,-0.58648 -6.7664,-1.2324 l -6.1684,-1.1743 v -0.76147 c 0,-1.5083 0.79405,-5.2983 1.6376,-7.8328 3.2033,-9.623 10.994,-17.318 20.828,-20.57 3.7662,-1.2457 6.5613,-1.6424 11.572,-1.6424 10.37,0 18.133,2.8463 24.135,8.8484 4.4892,4.4891 7.2146,10.22 8.2642,17.376 0.51925,3.5408 0.37606,11.27 -0.26217,14.15 -1.1217,5.0615 -3.534,10.634 -6.5857,15.214 -0.95498,1.4331 -10.213,13.59 -20.575,27.015 -10.361,13.425 -18.799,24.528 -18.75,24.673 0.0614,0.1835 7.5412,0.28395 24.429,0.32801 l 24.341,0.0635 v 12.957 h -71.777 v -2.9534 z"
         id="path6"
         inkscape:connector-curvature="0"
         style="stroke-width:0.24923" />
    </g>
  </g>
</svg>
