<svg id="Layer_1" data-name="Layer 1" xmlns="http://www.w3.org/2000/svg" viewBox="0 0 1119.84 432.72"><path d="M308.21 114.6a33.83 33.83 0 0 0-23.34-10.72h-1.18a34.07 34.07 0 0 0-34.37 32.58v.91a.15.15 0 0 0 .13.16 290.29 290.29 0 0 1 37.74 10.31h.11a177.71 177.71 0 0 1 30-9.11.17.17 0 0 0 .12-.15 34 34 0 0 0-9.21-24" fill="#fcb813"/><path d="M498.93 146c-20.18-2.34-39.95-4-58.77-5-9.86-.5-19.5-.79-28.67-.88-33.68-.35-62.7 2-86.26 7a192.57 192.57 0 0 0-23.07 6.3.15.15 0 0 0-.1.15.13.13 0 0 0 .09.14c16.45 6.49 30.42 14.17 41.54 22.85a.19.19 0 0 0 .1 0h.06a472.71 472.71 0 0 1 155.07-30.3.16.16 0 0 0 0-.31" fill="#6dcef5"/><path d="M331.64 181.25c-11.79-8.63-27.17-16.48-44.48-22.71A289.37 289.37 0 0 0 249.35 148a426.71 426.71 0 0 0-66.93-8.33c-7.23-.36-14.73-.58-22.29-.67-32.58-.33-68.22 2-105.93 7a.15.15 0 0 0-.13.17.14.14 0 0 0 .14.14l8 .42c16.61.86 33.78 1.75 49.65 3.6 45.16 5.26 127.33 19.36 170.37 54.76a.17.17 0 0 0 .1 0h.08c.13-.07 13.18-7.45 23.25-12.23 13-6.15 23.16-10.24 26-11.34a.18.18 0 0 0 .11-.13.16.16 0 0 0-.07-.14" fill="#c1cc23"/><path d="M522 387.06c-10.42 0-17-7.36-17-18.46s6.82-18.6 16.93-18.6a18.71 18.71 0 0 1 10 2.59l-1 6.49a14.33 14.33 0 0 0-8.7-3.17c-6.34 0-10.23 4.82-10.23 12.6s4.15 12.55 10.48 12.55a16.38 16.38 0 0 0 9.08-3l.93 5.91a19.51 19.51 0 0 1-10.49 3.09m48.32-1.55l-7 1.29-9.32-14.05h-3.1v13.69H544v-35.78h11.1c8 0 12.8 3.79 12.8 10.73 0 5.18-2.74 8.46-7.15 10.06zm-15.71-29.35h-3.79v11.35h3.48c4.25 0 6.89-2 6.89-5.76 0-3.57-2.28-5.59-6.58-5.59m25.36 30.27v-35.77h20.79v5.81h-14v8.4h10.79l.93 5.91h-11.72v9.85h14.52v5.8h-21.31zm43.41 0H612v-35.77h11.36c12.45 0 18.88 7.31 18.88 17.83s-6.68 17.94-18.88 17.94m0-30.12h-4.47v24.48h4.36c7.51 0 12-3.84 12-12.24s-4.78-12.24-11.92-12.24m30.66-5.65h6.9v35.77h-6.9zm35.11 5.97v29.8h-6.9v-29.8h-10.63v-5.97h27.79l.99 5.97H689.1zm51.55 30.43c-8.66 0-14.31-5.14-14.31-14.46v-21.94h6.84v21.57c0 5.44 2.49 8.87 7.52 8.87s7.62-3.21 7.62-8.72v-21.72h6.9v21.78c0 9.48-5.9 14.62-14.57 14.62m50.15-.63l-16.85-24.62v24.62h-6.37v-35.77h6.48l16.07 23.44v-23.44h6.38v35.77h-5.71zm18.74-35.77h6.9v35.77h-6.9zm35.2 36.45c-10.15 0-16.74-7.47-16.74-18.51s6.64-18.6 16.86-18.6 16.74 7.47 16.74 18.51-6.59 18.61-16.86 18.61m.06-31.42c-6.12 0-9.81 5-9.81 12.86s3.69 12.86 9.81 12.86 9.85-5 9.85-12.86-3.74-12.86-9.85-12.86m51.4 30.73l-16.86-24.62v24.62h-6.37v-35.77h6.48l16.08 23.44v-23.44h6.37v35.77h-5.7zm-477.5-73.5V96.86l30.54-10.09v199.04h74.02v27.12H418.7zm125.43 0V160.69l30.2-10.09v162.33h-30.2zm112.22 3.43c-22.64 0-38.78-5.15-48-10.64V80l30.15-10v83.4c11-4.13 22-6.88 35-6.88 38.5-.05 73.5 26.04 73.5 79.58 0 57-41.52 90.26-90.6 90.26m12-142.77c-14.75 0-23 4.12-29.86 7.21v106c6.87 2.75 14.08 3.77 24 3.77 30.54 0 54.22-27.45 54.22-62.8 0-30.89-17.5-54.22-48.39-54.22m321.21-5.11c14.41 15.11 22.31 37.06 22.31 63.15s-8.23 48.39-23 63.49C975.51 308.81 957 316.36 935 316.36c-21.28 0-39.12-6.87-52.51-19.91-15.1-15.1-23.34-38.09-23.34-64.52s8.24-48.38 23-63.83c13.38-13.73 31.57-21.62 53.19-21.62 22.31 0 40.84 7.89 54.22 22m-99.52 62.8c0 36 17.16 60.06 45.64 60.06s45-24.37 45-60.06c0-36-16.47-59.71-45.64-59.71s-45 24-45 59.71m-31.46-79.89a117.63 117.63 0 0 0-20.19-2c-11 0-20.09.64-32.23 5-13.74 4.69-27.76 14.24-38.24 25.89l-1.72 2v130.57h30.46V190.24c10.15-8.81 23.11-16.09 36.63-16.09h.35a76.42 76.42 0 0 1 14.36 1.29l1.59.35.65-1.48c2.23-5 5.2-10.91 7.83-16.12l3.18-6.33zm150.36-25.02c0-13.35 9.69-22.48 21.44-22.48s21.56 9.13 21.56 22.48-9.69 22.47-21.56 22.47-21.44-9.13-21.44-22.47zm38.44 0c0-10.73-7.41-18.37-17-18.37s-16.88 7.64-16.88 18.37 7.3 18.25 16.88 18.25 17-7.42 17-18.25zm-25.21-11.87h8.67c4.79 0 8.9 1.94 8.9 7.42a6.73 6.73 0 0 1-4.22 6.27l5.24 9.47h-5.24l-4-8h-4.67v8h-4.68zm7.64 11.52c3.08 0 4.91-1.37 4.91-3.88 0-2.28-1.26-3.76-4.68-3.76h-3.19V126z" fill="#007ac0"/></svg>